<mxfile host="app.diagrams.net" modified="2024-02-27T19:25:03.964Z" agent="Mozilla/5.0 (Windows NT 10.0; Win64; x64) AppleWebKit/537.36 (KHTML, like Gecko) Chrome/122.0.0.0 Safari/537.36" etag="WSWVcWKKQ4K4F4mCC7GE" version="23.1.7" type="device">
  <diagram id="wVERiQO9pAQlOKN3dyWn" name="PÃ¡gina-1">
    <mxGraphModel dx="1400" dy="753" grid="1" gridSize="10" guides="1" tooltips="1" connect="1" arrows="1" fold="1" page="1" pageScale="1" pageWidth="1169" pageHeight="827" math="0" shadow="0">
      <root>
        <mxCell id="0" />
        <mxCell id="1" parent="0" />
        <mxCell id="Sfp3jzlEu73U9fcvL78k-5" style="edgeStyle=orthogonalEdgeStyle;rounded=0;orthogonalLoop=1;jettySize=auto;html=1;exitX=0.875;exitY=0.5;exitDx=0;exitDy=0;exitPerimeter=0;endArrow=baseDash;endFill=0;fillColor=#dae8fc;strokeColor=#6c8ebf;" parent="1" source="Sfp3jzlEu73U9fcvL78k-1" edge="1">
          <mxGeometry relative="1" as="geometry">
            <mxPoint x="380" y="110" as="targetPoint" />
          </mxGeometry>
        </mxCell>
        <mxCell id="Sfp3jzlEu73U9fcvL78k-1" value="&lt;font style=&quot;font-size: 22px;&quot; face=&quot;Verdana&quot;&gt;Internet&lt;/font&gt;" style="ellipse;shape=cloud;whiteSpace=wrap;html=1;fillColor=none;" parent="1" vertex="1">
          <mxGeometry width="200" height="90" as="geometry" />
        </mxCell>
        <mxCell id="Sfp3jzlEu73U9fcvL78k-7" style="edgeStyle=orthogonalEdgeStyle;rounded=0;orthogonalLoop=1;jettySize=auto;html=1;endArrow=baseDash;endFill=0;fillColor=#dae8fc;strokeColor=#6c8ebf;" parent="1" source="Sfp3jzlEu73U9fcvL78k-6" target="Sfp3jzlEu73U9fcvL78k-8" edge="1">
          <mxGeometry relative="1" as="geometry">
            <mxPoint x="90" y="260" as="targetPoint" />
          </mxGeometry>
        </mxCell>
        <mxCell id="Sfp3jzlEu73U9fcvL78k-6" value="" style="image;aspect=fixed;perimeter=ellipsePerimeter;html=1;align=center;shadow=0;dashed=0;spacingTop=3;image=img/lib/active_directory/modem.svg;" parent="1" vertex="1">
          <mxGeometry x="330" y="80" width="72.29" height="60" as="geometry" />
        </mxCell>
        <mxCell id="L_c3y3DaQQXybOgKE99d-23" style="edgeStyle=orthogonalEdgeStyle;rounded=0;orthogonalLoop=1;jettySize=auto;html=1;exitX=1;exitY=0.25;exitDx=0;exitDy=0;" edge="1" parent="1" source="Sfp3jzlEu73U9fcvL78k-8" target="L_c3y3DaQQXybOgKE99d-53">
          <mxGeometry relative="1" as="geometry">
            <mxPoint x="990" y="1050" as="targetPoint" />
          </mxGeometry>
        </mxCell>
        <mxCell id="Sfp3jzlEu73U9fcvL78k-8" value="" style="image;html=1;image=img/lib/clip_art/computers/Server_Rack_Partial_128x128.png" parent="1" vertex="1">
          <mxGeometry x="670" y="65" width="80" height="90" as="geometry" />
        </mxCell>
        <mxCell id="Sfp3jzlEu73U9fcvL78k-11" value="" style="edgeStyle=orthogonalEdgeStyle;rounded=0;orthogonalLoop=1;jettySize=auto;html=1;exitX=1;exitY=0.5;exitDx=0;exitDy=0;endArrow=baseDash;endFill=0;fillColor=#dae8fc;strokeColor=#6c8ebf;entryX=0.5;entryY=0;entryDx=0;entryDy=0;" parent="1" source="Sfp3jzlEu73U9fcvL78k-8" target="L_c3y3DaQQXybOgKE99d-54" edge="1">
          <mxGeometry relative="1" as="geometry">
            <mxPoint x="420" y="240" as="targetPoint" />
            <mxPoint x="120" y="205" as="sourcePoint" />
            <Array as="points">
              <mxPoint x="770" y="110" />
              <mxPoint x="770" y="198" />
              <mxPoint x="420" y="198" />
              <mxPoint x="420" y="230" />
            </Array>
          </mxGeometry>
        </mxCell>
        <mxCell id="Sfp3jzlEu73U9fcvL78k-20" style="edgeStyle=orthogonalEdgeStyle;rounded=0;orthogonalLoop=1;jettySize=auto;html=1;exitX=0.005;exitY=0.119;exitDx=0;exitDy=0;fillColor=#dae8fc;strokeColor=#6c8ebf;exitPerimeter=0;" parent="1" source="L_c3y3DaQQXybOgKE99d-54" edge="1">
          <mxGeometry relative="1" as="geometry">
            <mxPoint x="70" y="380" as="targetPoint" />
            <mxPoint x="440" y="320" as="sourcePoint" />
          </mxGeometry>
        </mxCell>
        <mxCell id="Sfp3jzlEu73U9fcvL78k-21" style="edgeStyle=orthogonalEdgeStyle;rounded=0;orthogonalLoop=1;jettySize=auto;html=1;exitX=0;exitY=0.25;exitDx=0;exitDy=0;entryX=0.5;entryY=0;entryDx=0;entryDy=0;fillColor=#dae8fc;strokeColor=#6c8ebf;" parent="1" source="L_c3y3DaQQXybOgKE99d-54" target="Sfp3jzlEu73U9fcvL78k-13" edge="1">
          <mxGeometry relative="1" as="geometry">
            <mxPoint x="420" y="320" as="sourcePoint" />
          </mxGeometry>
        </mxCell>
        <mxCell id="Sfp3jzlEu73U9fcvL78k-22" style="edgeStyle=orthogonalEdgeStyle;rounded=0;orthogonalLoop=1;jettySize=auto;html=1;exitX=0;exitY=0.5;exitDx=0;exitDy=0;entryX=0.5;entryY=0;entryDx=0;entryDy=0;fillColor=#dae8fc;strokeColor=#6c8ebf;" parent="1" source="L_c3y3DaQQXybOgKE99d-54" target="Sfp3jzlEu73U9fcvL78k-14" edge="1">
          <mxGeometry relative="1" as="geometry">
            <mxPoint x="380" y="320" as="sourcePoint" />
          </mxGeometry>
        </mxCell>
        <mxCell id="Sfp3jzlEu73U9fcvL78k-29" style="edgeStyle=orthogonalEdgeStyle;rounded=0;orthogonalLoop=1;jettySize=auto;html=1;exitX=1;exitY=0.25;exitDx=0;exitDy=0;entryX=0.5;entryY=0;entryDx=0;entryDy=0;fillColor=#dae8fc;strokeColor=#6c8ebf;" parent="1" source="L_c3y3DaQQXybOgKE99d-54" target="Sfp3jzlEu73U9fcvL78k-26" edge="1">
          <mxGeometry relative="1" as="geometry">
            <mxPoint x="460" y="260" as="sourcePoint" />
          </mxGeometry>
        </mxCell>
        <mxCell id="Sfp3jzlEu73U9fcvL78k-30" style="edgeStyle=orthogonalEdgeStyle;rounded=0;orthogonalLoop=1;jettySize=auto;html=1;exitX=1;exitY=0.5;exitDx=0;exitDy=0;fillColor=#dae8fc;strokeColor=#6c8ebf;" parent="1" source="L_c3y3DaQQXybOgKE99d-54" target="Sfp3jzlEu73U9fcvL78k-25" edge="1">
          <mxGeometry relative="1" as="geometry">
            <mxPoint x="460" y="280" as="sourcePoint" />
          </mxGeometry>
        </mxCell>
        <mxCell id="Sfp3jzlEu73U9fcvL78k-31" style="edgeStyle=orthogonalEdgeStyle;rounded=0;orthogonalLoop=1;jettySize=auto;html=1;exitX=1;exitY=0.75;exitDx=0;exitDy=0;fillColor=#dae8fc;strokeColor=#6c8ebf;" parent="1" source="L_c3y3DaQQXybOgKE99d-54" target="Sfp3jzlEu73U9fcvL78k-24" edge="1">
          <mxGeometry relative="1" as="geometry">
            <mxPoint x="460" y="300" as="sourcePoint" />
          </mxGeometry>
        </mxCell>
        <mxCell id="Sfp3jzlEu73U9fcvL78k-12" value="" style="image;html=1;image=img/lib/clip_art/computers/Printer_128x128.png" parent="1" vertex="1">
          <mxGeometry x="40" y="390" width="70" height="70" as="geometry" />
        </mxCell>
        <mxCell id="Sfp3jzlEu73U9fcvL78k-13" value="" style="image;html=1;image=img/lib/clip_art/computers/Printer_128x128.png" parent="1" vertex="1">
          <mxGeometry x="140" y="390" width="70" height="70" as="geometry" />
        </mxCell>
        <mxCell id="Sfp3jzlEu73U9fcvL78k-14" value="" style="image;html=1;image=img/lib/clip_art/computers/Printer_128x128.png" parent="1" vertex="1">
          <mxGeometry x="250" y="400" width="70" height="70" as="geometry" />
        </mxCell>
        <mxCell id="Sfp3jzlEu73U9fcvL78k-23" value="" style="shape=image;html=1;verticalAlign=top;verticalLabelPosition=bottom;labelBackgroundColor=#ffffff;imageAspect=0;aspect=fixed;image=https://cdn2.iconfinder.com/data/icons/crystalproject/128x128/apps/mycomputer.png" parent="1" vertex="1">
          <mxGeometry x="280" y="1530.16" width="70" height="70" as="geometry" />
        </mxCell>
        <mxCell id="Sfp3jzlEu73U9fcvL78k-24" value="" style="shape=image;html=1;verticalAlign=top;verticalLabelPosition=bottom;labelBackgroundColor=#ffffff;imageAspect=0;aspect=fixed;image=https://cdn2.iconfinder.com/data/icons/crystalproject/128x128/apps/mycomputer.png" parent="1" vertex="1">
          <mxGeometry x="380" y="680" width="70" height="70" as="geometry" />
        </mxCell>
        <mxCell id="Sfp3jzlEu73U9fcvL78k-25" value="" style="shape=image;html=1;verticalAlign=top;verticalLabelPosition=bottom;labelBackgroundColor=#ffffff;imageAspect=0;aspect=fixed;image=https://cdn2.iconfinder.com/data/icons/crystalproject/128x128/apps/mycomputer.png" parent="1" vertex="1">
          <mxGeometry x="470" y="680" width="70" height="70" as="geometry" />
        </mxCell>
        <mxCell id="Sfp3jzlEu73U9fcvL78k-26" value="" style="shape=image;html=1;verticalAlign=top;verticalLabelPosition=bottom;labelBackgroundColor=#ffffff;imageAspect=0;aspect=fixed;image=https://cdn2.iconfinder.com/data/icons/crystalproject/128x128/apps/mycomputer.png" parent="1" vertex="1">
          <mxGeometry x="560" y="680" width="70" height="70" as="geometry" />
        </mxCell>
        <mxCell id="L_c3y3DaQQXybOgKE99d-15" style="edgeStyle=orthogonalEdgeStyle;rounded=0;orthogonalLoop=1;jettySize=auto;html=1;exitX=1;exitY=1;exitDx=0;exitDy=0;entryX=0.25;entryY=0;entryDx=0;entryDy=0;fillColor=#f8cecc;strokeColor=#b85450;" edge="1" parent="1" source="L_c3y3DaQQXybOgKE99d-1" target="L_c3y3DaQQXybOgKE99d-13">
          <mxGeometry relative="1" as="geometry">
            <mxPoint x="685" y="1410.16" as="targetPoint" />
          </mxGeometry>
        </mxCell>
        <mxCell id="L_c3y3DaQQXybOgKE99d-16" style="edgeStyle=orthogonalEdgeStyle;rounded=0;orthogonalLoop=1;jettySize=auto;html=1;exitX=0.75;exitY=1;exitDx=0;exitDy=0;fillColor=#f8cecc;strokeColor=#b85450;" edge="1" parent="1" source="L_c3y3DaQQXybOgKE99d-1" target="L_c3y3DaQQXybOgKE99d-12">
          <mxGeometry relative="1" as="geometry">
            <mxPoint x="595" y="1340.16" as="targetPoint" />
          </mxGeometry>
        </mxCell>
        <mxCell id="L_c3y3DaQQXybOgKE99d-17" style="edgeStyle=orthogonalEdgeStyle;rounded=0;orthogonalLoop=1;jettySize=auto;html=1;exitX=0.5;exitY=1;exitDx=0;exitDy=0;entryX=0.5;entryY=0;entryDx=0;entryDy=0;fillColor=#f8cecc;strokeColor=#b85450;" edge="1" parent="1" source="L_c3y3DaQQXybOgKE99d-1" target="L_c3y3DaQQXybOgKE99d-11">
          <mxGeometry relative="1" as="geometry">
            <mxPoint x="495" y="1340.16" as="targetPoint" />
          </mxGeometry>
        </mxCell>
        <mxCell id="L_c3y3DaQQXybOgKE99d-18" style="edgeStyle=orthogonalEdgeStyle;rounded=0;orthogonalLoop=1;jettySize=auto;html=1;exitX=0.25;exitY=1;exitDx=0;exitDy=0;entryX=0.5;entryY=0;entryDx=0;entryDy=0;fillColor=#f8cecc;strokeColor=#b85450;" edge="1" parent="1" source="L_c3y3DaQQXybOgKE99d-1" target="L_c3y3DaQQXybOgKE99d-10">
          <mxGeometry relative="1" as="geometry">
            <mxPoint x="405" y="1320.16" as="targetPoint" />
          </mxGeometry>
        </mxCell>
        <mxCell id="L_c3y3DaQQXybOgKE99d-19" style="edgeStyle=orthogonalEdgeStyle;rounded=0;orthogonalLoop=1;jettySize=auto;html=1;exitX=0;exitY=1;exitDx=0;exitDy=0;entryX=0.5;entryY=0;entryDx=0;entryDy=0;fillColor=#f8cecc;strokeColor=#b85450;" edge="1" parent="1" source="L_c3y3DaQQXybOgKE99d-1" target="Sfp3jzlEu73U9fcvL78k-23">
          <mxGeometry relative="1" as="geometry">
            <mxPoint x="305" y="1350.16" as="targetPoint" />
          </mxGeometry>
        </mxCell>
        <mxCell id="L_c3y3DaQQXybOgKE99d-20" style="edgeStyle=orthogonalEdgeStyle;rounded=0;orthogonalLoop=1;jettySize=auto;html=1;exitX=0;exitY=0.25;exitDx=0;exitDy=0;entryX=1;entryY=0.75;entryDx=0;entryDy=0;fillColor=#f8cecc;strokeColor=#b85450;" edge="1" parent="1" source="L_c3y3DaQQXybOgKE99d-1" target="L_c3y3DaQQXybOgKE99d-4">
          <mxGeometry relative="1" as="geometry">
            <mxPoint x="85" y="1060.1600000000003" as="targetPoint" />
          </mxGeometry>
        </mxCell>
        <mxCell id="L_c3y3DaQQXybOgKE99d-21" style="edgeStyle=orthogonalEdgeStyle;rounded=0;orthogonalLoop=1;jettySize=auto;html=1;exitX=0;exitY=0.75;exitDx=0;exitDy=0;entryX=1;entryY=0.25;entryDx=0;entryDy=0;fillColor=#f8cecc;strokeColor=#b85450;" edge="1" parent="1" source="L_c3y3DaQQXybOgKE99d-1" target="L_c3y3DaQQXybOgKE99d-5">
          <mxGeometry relative="1" as="geometry">
            <mxPoint x="95" y="1130.1600000000003" as="targetPoint" />
          </mxGeometry>
        </mxCell>
        <mxCell id="L_c3y3DaQQXybOgKE99d-1" value="" style="image;html=1;image=img/lib/clip_art/networking/Print_Server_128x128.png" vertex="1" parent="1">
          <mxGeometry x="470" y="1060.1599999999999" width="80" height="80" as="geometry" />
        </mxCell>
        <mxCell id="L_c3y3DaQQXybOgKE99d-4" value="" style="image;html=1;image=img/lib/clip_art/computers/Printer_128x128.png" vertex="1" parent="1">
          <mxGeometry x="85" y="999.9966666666668" width="80" height="80" as="geometry" />
        </mxCell>
        <mxCell id="L_c3y3DaQQXybOgKE99d-5" value="" style="image;html=1;image=img/lib/clip_art/computers/Printer_128x128.png" vertex="1" parent="1">
          <mxGeometry x="85" y="1100.33" width="80" height="80" as="geometry" />
        </mxCell>
        <mxCell id="L_c3y3DaQQXybOgKE99d-10" value="" style="shape=image;html=1;verticalAlign=top;verticalLabelPosition=bottom;labelBackgroundColor=#ffffff;imageAspect=0;aspect=fixed;image=https://cdn2.iconfinder.com/data/icons/crystalproject/128x128/apps/mycomputer.png" vertex="1" parent="1">
          <mxGeometry x="390" y="1530.16" width="70" height="70" as="geometry" />
        </mxCell>
        <mxCell id="L_c3y3DaQQXybOgKE99d-11" value="" style="shape=image;html=1;verticalAlign=top;verticalLabelPosition=bottom;labelBackgroundColor=#ffffff;imageAspect=0;aspect=fixed;image=https://cdn2.iconfinder.com/data/icons/crystalproject/128x128/apps/mycomputer.png" vertex="1" parent="1">
          <mxGeometry x="480" y="1530.16" width="70" height="70" as="geometry" />
        </mxCell>
        <mxCell id="L_c3y3DaQQXybOgKE99d-12" value="" style="shape=image;html=1;verticalAlign=top;verticalLabelPosition=bottom;labelBackgroundColor=#ffffff;imageAspect=0;aspect=fixed;image=https://cdn2.iconfinder.com/data/icons/crystalproject/128x128/apps/mycomputer.png" vertex="1" parent="1">
          <mxGeometry x="575" y="1530.16" width="70" height="70" as="geometry" />
        </mxCell>
        <mxCell id="L_c3y3DaQQXybOgKE99d-13" value="" style="shape=image;html=1;verticalAlign=top;verticalLabelPosition=bottom;labelBackgroundColor=#ffffff;imageAspect=0;aspect=fixed;image=https://cdn2.iconfinder.com/data/icons/crystalproject/128x128/apps/mycomputer.png" vertex="1" parent="1">
          <mxGeometry x="680" y="1530.16" width="70" height="70" as="geometry" />
        </mxCell>
        <mxCell id="L_c3y3DaQQXybOgKE99d-25" style="edgeStyle=orthogonalEdgeStyle;rounded=0;orthogonalLoop=1;jettySize=auto;html=1;exitX=0;exitY=0.5;exitDx=0;exitDy=0;entryX=1;entryY=0.5;entryDx=0;entryDy=0;fillColor=#f8cecc;strokeColor=#b85450;" edge="1" parent="1" source="L_c3y3DaQQXybOgKE99d-53" target="L_c3y3DaQQXybOgKE99d-31">
          <mxGeometry relative="1" as="geometry">
            <mxPoint x="950" y="1090" as="sourcePoint" />
            <mxPoint x="800" y="1090.0000000000002" as="targetPoint" />
          </mxGeometry>
        </mxCell>
        <mxCell id="L_c3y3DaQQXybOgKE99d-30" style="edgeStyle=orthogonalEdgeStyle;rounded=0;orthogonalLoop=1;jettySize=auto;html=1;entryX=0.5;entryY=0;entryDx=0;entryDy=0;" edge="1" parent="1" source="L_c3y3DaQQXybOgKE99d-53" target="L_c3y3DaQQXybOgKE99d-33">
          <mxGeometry relative="1" as="geometry">
            <mxPoint x="990" y="1130" as="sourcePoint" />
            <mxPoint x="990" y="1988" as="targetPoint" />
          </mxGeometry>
        </mxCell>
        <mxCell id="L_c3y3DaQQXybOgKE99d-26" style="edgeStyle=orthogonalEdgeStyle;rounded=0;orthogonalLoop=1;jettySize=auto;html=1;exitX=0;exitY=0.5;exitDx=0;exitDy=0;fillColor=#f8cecc;strokeColor=#b85450;" edge="1" parent="1" source="L_c3y3DaQQXybOgKE99d-31" target="L_c3y3DaQQXybOgKE99d-1">
          <mxGeometry relative="1" as="geometry">
            <mxPoint x="720" y="1090.0000000000002" as="sourcePoint" />
          </mxGeometry>
        </mxCell>
        <mxCell id="L_c3y3DaQQXybOgKE99d-31" value="" style="image;html=1;image=img/lib/clip_art/networking/Switch_128x128.png" vertex="1" parent="1">
          <mxGeometry x="720" y="1050" width="80" height="80" as="geometry" />
        </mxCell>
        <mxCell id="L_c3y3DaQQXybOgKE99d-35" style="edgeStyle=orthogonalEdgeStyle;rounded=0;orthogonalLoop=1;jettySize=auto;html=1;exitX=0;exitY=0.5;exitDx=0;exitDy=0;entryX=1;entryY=0.75;entryDx=0;entryDy=0;fillColor=#e1d5e7;strokeColor=#9673a6;" edge="1" parent="1" source="L_c3y3DaQQXybOgKE99d-33" target="L_c3y3DaQQXybOgKE99d-34">
          <mxGeometry relative="1" as="geometry" />
        </mxCell>
        <mxCell id="L_c3y3DaQQXybOgKE99d-33" value="" style="image;html=1;image=img/lib/clip_art/networking/Switch_128x128.png" vertex="1" parent="1">
          <mxGeometry x="950" y="2000" width="80" height="80" as="geometry" />
        </mxCell>
        <mxCell id="L_c3y3DaQQXybOgKE99d-40" style="edgeStyle=orthogonalEdgeStyle;rounded=0;orthogonalLoop=1;jettySize=auto;html=1;exitX=1;exitY=1;exitDx=0;exitDy=0;entryX=0.5;entryY=0;entryDx=0;entryDy=0;fillColor=#e1d5e7;strokeColor=#9673a6;" edge="1" parent="1" source="L_c3y3DaQQXybOgKE99d-34" target="L_c3y3DaQQXybOgKE99d-36">
          <mxGeometry relative="1" as="geometry">
            <mxPoint x="800" y="2150" as="targetPoint" />
          </mxGeometry>
        </mxCell>
        <mxCell id="L_c3y3DaQQXybOgKE99d-41" style="edgeStyle=orthogonalEdgeStyle;rounded=0;orthogonalLoop=1;jettySize=auto;html=1;exitX=0.5;exitY=1;exitDx=0;exitDy=0;entryX=0.5;entryY=0;entryDx=0;entryDy=0;fillColor=#e1d5e7;strokeColor=#9673a6;" edge="1" parent="1" source="L_c3y3DaQQXybOgKE99d-34" target="L_c3y3DaQQXybOgKE99d-37">
          <mxGeometry relative="1" as="geometry">
            <mxPoint x="710" y="2150" as="targetPoint" />
          </mxGeometry>
        </mxCell>
        <mxCell id="L_c3y3DaQQXybOgKE99d-42" style="edgeStyle=orthogonalEdgeStyle;rounded=0;orthogonalLoop=1;jettySize=auto;html=1;exitX=0.25;exitY=1;exitDx=0;exitDy=0;entryX=0.5;entryY=0;entryDx=0;entryDy=0;fillColor=#e1d5e7;strokeColor=#9673a6;" edge="1" parent="1" source="L_c3y3DaQQXybOgKE99d-34" target="L_c3y3DaQQXybOgKE99d-38">
          <mxGeometry relative="1" as="geometry">
            <mxPoint x="610" y="2150" as="targetPoint" />
          </mxGeometry>
        </mxCell>
        <mxCell id="L_c3y3DaQQXybOgKE99d-44" style="edgeStyle=orthogonalEdgeStyle;rounded=0;orthogonalLoop=1;jettySize=auto;html=1;exitX=0;exitY=0.75;exitDx=0;exitDy=0;entryX=0.5;entryY=0;entryDx=0;entryDy=0;fillColor=#e1d5e7;strokeColor=#9673a6;" edge="1" parent="1" source="L_c3y3DaQQXybOgKE99d-34" target="L_c3y3DaQQXybOgKE99d-39">
          <mxGeometry relative="1" as="geometry">
            <mxPoint x="510" y="2150" as="targetPoint" />
          </mxGeometry>
        </mxCell>
        <mxCell id="L_c3y3DaQQXybOgKE99d-50" style="edgeStyle=orthogonalEdgeStyle;rounded=0;orthogonalLoop=1;jettySize=auto;html=1;exitX=0;exitY=0;exitDx=0;exitDy=0;fillColor=#e1d5e7;strokeColor=#9673a6;" edge="1" parent="1" source="L_c3y3DaQQXybOgKE99d-34">
          <mxGeometry relative="1" as="geometry">
            <mxPoint x="600" y="1930" as="targetPoint" />
          </mxGeometry>
        </mxCell>
        <mxCell id="L_c3y3DaQQXybOgKE99d-51" style="edgeStyle=orthogonalEdgeStyle;rounded=0;orthogonalLoop=1;jettySize=auto;html=1;exitX=0.5;exitY=0;exitDx=0;exitDy=0;fillColor=#e1d5e7;strokeColor=#9673a6;" edge="1" parent="1" source="L_c3y3DaQQXybOgKE99d-34">
          <mxGeometry relative="1" as="geometry">
            <mxPoint x="710" y="1920" as="targetPoint" />
          </mxGeometry>
        </mxCell>
        <mxCell id="L_c3y3DaQQXybOgKE99d-52" style="edgeStyle=orthogonalEdgeStyle;rounded=0;orthogonalLoop=1;jettySize=auto;html=1;exitX=1;exitY=0;exitDx=0;exitDy=0;fillColor=#e1d5e7;strokeColor=#9673a6;" edge="1" parent="1" source="L_c3y3DaQQXybOgKE99d-34">
          <mxGeometry relative="1" as="geometry">
            <mxPoint x="830" y="1930" as="targetPoint" />
          </mxGeometry>
        </mxCell>
        <mxCell id="L_c3y3DaQQXybOgKE99d-34" value="" style="image;html=1;image=img/lib/clip_art/computers/Server_128x128.png" vertex="1" parent="1">
          <mxGeometry x="670" y="1980" width="80" height="80" as="geometry" />
        </mxCell>
        <mxCell id="L_c3y3DaQQXybOgKE99d-46" style="edgeStyle=orthogonalEdgeStyle;rounded=0;orthogonalLoop=1;jettySize=auto;html=1;exitX=1;exitY=0.5;exitDx=0;exitDy=0;entryX=0;entryY=0.5;entryDx=0;entryDy=0;fillColor=#e1d5e7;strokeColor=#9673a6;" edge="1" parent="1" source="L_c3y3DaQQXybOgKE99d-36" target="L_c3y3DaQQXybOgKE99d-45">
          <mxGeometry relative="1" as="geometry" />
        </mxCell>
        <mxCell id="L_c3y3DaQQXybOgKE99d-36" value="" style="shape=image;html=1;verticalAlign=top;verticalLabelPosition=bottom;labelBackgroundColor=#ffffff;imageAspect=0;aspect=fixed;image=https://cdn2.iconfinder.com/data/icons/crystalproject/128x128/apps/mycomputer.png" vertex="1" parent="1">
          <mxGeometry x="770" y="2170" width="70" height="70" as="geometry" />
        </mxCell>
        <mxCell id="L_c3y3DaQQXybOgKE99d-37" value="" style="shape=image;html=1;verticalAlign=top;verticalLabelPosition=bottom;labelBackgroundColor=#ffffff;imageAspect=0;aspect=fixed;image=https://cdn2.iconfinder.com/data/icons/crystalproject/128x128/apps/mycomputer.png" vertex="1" parent="1">
          <mxGeometry x="680" y="2170" width="70" height="70" as="geometry" />
        </mxCell>
        <mxCell id="L_c3y3DaQQXybOgKE99d-38" value="" style="shape=image;html=1;verticalAlign=top;verticalLabelPosition=bottom;labelBackgroundColor=#ffffff;imageAspect=0;aspect=fixed;image=https://cdn2.iconfinder.com/data/icons/crystalproject/128x128/apps/mycomputer.png" vertex="1" parent="1">
          <mxGeometry x="575" y="2170" width="70" height="70" as="geometry" />
        </mxCell>
        <mxCell id="L_c3y3DaQQXybOgKE99d-39" value="" style="shape=image;html=1;verticalAlign=top;verticalLabelPosition=bottom;labelBackgroundColor=#ffffff;imageAspect=0;aspect=fixed;image=https://cdn2.iconfinder.com/data/icons/crystalproject/128x128/apps/mycomputer.png" vertex="1" parent="1">
          <mxGeometry x="475" y="2170" width="70" height="70" as="geometry" />
        </mxCell>
        <mxCell id="L_c3y3DaQQXybOgKE99d-45" value="" style="image;html=1;image=img/lib/clip_art/computers/Printer_128x128.png" vertex="1" parent="1">
          <mxGeometry x="980" y="2167.5" width="70" height="75" as="geometry" />
        </mxCell>
        <mxCell id="L_c3y3DaQQXybOgKE99d-47" value="" style="image;html=1;image=img/lib/clip_art/computers/Netbook_128x128.png" vertex="1" parent="1">
          <mxGeometry x="790" y="1820" width="80" height="80" as="geometry" />
        </mxCell>
        <mxCell id="L_c3y3DaQQXybOgKE99d-48" value="" style="image;html=1;image=img/lib/clip_art/computers/Netbook_128x128.png" vertex="1" parent="1">
          <mxGeometry x="670" y="1820" width="80" height="80" as="geometry" />
        </mxCell>
        <mxCell id="L_c3y3DaQQXybOgKE99d-49" value="" style="image;html=1;image=img/lib/clip_art/computers/Netbook_128x128.png" vertex="1" parent="1">
          <mxGeometry x="545" y="1820" width="80" height="80" as="geometry" />
        </mxCell>
        <mxCell id="L_c3y3DaQQXybOgKE99d-59" style="edgeStyle=orthogonalEdgeStyle;rounded=0;orthogonalLoop=1;jettySize=auto;html=1;exitX=0;exitY=0;exitDx=0;exitDy=0;entryX=1;entryY=0.5;entryDx=0;entryDy=0;" edge="1" parent="1" source="L_c3y3DaQQXybOgKE99d-53" target="L_c3y3DaQQXybOgKE99d-54">
          <mxGeometry relative="1" as="geometry">
            <mxPoint x="960" y="630" as="targetPoint" />
          </mxGeometry>
        </mxCell>
        <mxCell id="L_c3y3DaQQXybOgKE99d-53" value="" style="image;html=1;image=img/lib/clip_art/networking/Switch_128x128.png" vertex="1" parent="1">
          <mxGeometry x="960" y="1050" width="80" height="80" as="geometry" />
        </mxCell>
        <mxCell id="L_c3y3DaQQXybOgKE99d-56" style="edgeStyle=orthogonalEdgeStyle;rounded=0;orthogonalLoop=1;jettySize=auto;html=1;exitX=1;exitY=1;exitDx=0;exitDy=0;entryX=0.5;entryY=0;entryDx=0;entryDy=0;fillColor=#dae8fc;strokeColor=#6c8ebf;" edge="1" parent="1" source="L_c3y3DaQQXybOgKE99d-54" target="L_c3y3DaQQXybOgKE99d-55">
          <mxGeometry relative="1" as="geometry" />
        </mxCell>
        <mxCell id="L_c3y3DaQQXybOgKE99d-54" value="" style="image;html=1;image=img/lib/clip_art/networking/Switch_128x128.png" vertex="1" parent="1">
          <mxGeometry x="322.29" y="230" width="80" height="80" as="geometry" />
        </mxCell>
        <mxCell id="L_c3y3DaQQXybOgKE99d-55" value="" style="shape=image;html=1;verticalAlign=top;verticalLabelPosition=bottom;labelBackgroundColor=#ffffff;imageAspect=0;aspect=fixed;image=https://cdn2.iconfinder.com/data/icons/crystalproject/128x128/apps/mycomputer.png" vertex="1" parent="1">
          <mxGeometry x="290" y="680" width="70" height="70" as="geometry" />
        </mxCell>
      </root>
    </mxGraphModel>
  </diagram>
</mxfile>
